<?xml version="1.0" encoding="UTF-8"?>
<svg width="21px" height="21px" viewBox="0 0 21 21" version="1.1" xmlns="http://www.w3.org/2000/svg" xmlns:xlink="http://www.w3.org/1999/xlink">
    <!-- Generator: Sketch 48.2 (47327) - http://www.bohemiancoding.com/sketch -->
    <title>Combined Shape</title>
    <desc>Created with Sketch.</desc>
    <defs></defs>
    <g id="全部-查看大图弹窗" stroke="none" stroke-width="1" fill="none" fill-rule="evenodd" transform="translate(-1118.000000, -202.000000)">
        <path d="M1128.41421,210.596376 L1136.14002,202.870565 C1136.64201,202.368583 1137.45588,202.368583 1137.95786,202.870565 C1138.45984,203.372547 1138.45984,204.186421 1137.95786,204.688403 L1130.23205,212.414214 L1137.95786,220.140024 C1138.45984,220.642006 1138.45984,221.45588 1137.95786,221.957862 C1137.45588,222.459844 1136.64201,222.459844 1136.14002,221.957862 L1128.41421,214.232051 L1120.6884,221.957862 C1120.18642,222.459844 1119.37255,222.459844 1118.87056,221.957862 C1118.36858,221.45588 1118.36858,220.642006 1118.87056,220.140024 L1126.59638,212.414214 L1118.87056,204.688403 C1118.36858,204.186421 1118.36858,203.372547 1118.87056,202.870565 C1119.37255,202.368583 1120.18642,202.368583 1120.6884,202.870565 L1128.41421,210.596376 Z" id="Combined-Shape" fill="#F5F5F5"></path>
    </g>
</svg>